<svg width="699" height="143" viewBox="0 0 699 143" fill="none" xmlns="http://www.w3.org/2000/svg">
<path d="M0.000113747 126.022L31.4851 94.6972C29.7877 92.5521 27.2111 89.2203 24.2293 85.0442C10.1842 65.3579 0.99406 52.1298 1.88096 36.5283C2.10269 32.6413 2.6073 23.7946 9.14436 18.2265C15.7273 12.6203 24.7033 13.5103 29.5278 13.9819C41.8526 15.1914 51.2186 21.8625 55.179 24.6998C60.7298 28.6705 70.004 36.7717 75.1725 37.8367C79.9128 38.818 84.3244 38.004 84.3244 38.004C87.0386 37.5096 89.6534 36.437 92.6429 34.7103L125.955 0L135 9.55476C132.821 11.9585 123.501 21.5658 119.097 26.282C103.14 43.4124 98.3772 47.4364 97.7808 54.389C97.3832 59.0063 98.79 64.1637 102.903 70.1882C110.312 81.0355 118.592 92.9856 121.054 106.564C122.591 115.007 121.888 122.873 117.231 128.129C113.883 131.909 109.586 133.111 106.612 133.91C84.9513 139.722 61.8996 120.629 56.5017 115.852C55.6836 115.129 55.0338 114.52 54.6668 114.178L63.0464 105.605C82.153 121.176 99.3176 126.995 106.237 121.161C109.249 118.62 110.733 114.353 110.121 110.588C108.577 101.018 100.801 86.8622 94.8372 79.1338C92.6735 76.3269 89.7528 74.0601 86.3658 72.9114C77.1298 69.8003 71.0668 73.7938 64.7361 79.7499C56.9528 87.0676 37.2958 107.302 10.1536 134.374M63.2605 61.372C70.5392 52.3808 55.9054 41.3586 51.7155 37.5552C51.7155 37.5552 41.2027 27.5752 25.8043 26.4798C22.2491 26.2288 18.1892 26.3201 15.3297 29.0128C11.0099 33.0825 13.5712 42.6746 14.9169 46.8279C19.7872 61.8892 34.1611 78.7915 41.9673 85.029C51.1192 75.9237 52.4113 74.7751 63.2605 61.3796V61.372Z" fill="#00B7CB"/>
<path d="M252.559 50.1302H218.869C219.329 58.6002 223.379 63.5702 229.909 63.5702C235.619 63.5702 239.569 60.4402 240.769 55.3802H252.549C250.889 66.3302 242.429 72.7802 229.909 72.7802C215.549 72.7802 207.079 63.8502 207.079 48.7602C207.079 33.6702 215.549 24.7402 229.909 24.7402C244.269 24.7402 252.549 33.5802 252.549 48.7602V50.1402L252.559 50.1302ZM218.959 45.9902H240.679C239.939 38.2602 235.979 33.8402 229.909 33.8402C223.839 33.8402 219.789 38.2602 218.959 45.9902Z" fill="#00B7CB"/>
<path d="M304.099 25.6514L292.039 71.8514H269.119L256.969 25.6514H269.949L280.539 71.0214H280.719L291.119 25.6514H304.099Z" fill="#00B7CB"/>
<path d="M354.259 50.1302H320.569C321.029 58.6002 325.079 63.5702 331.609 63.5702C337.319 63.5702 341.269 60.4402 342.469 55.3802H354.249C352.589 66.3302 344.129 72.7802 331.609 72.7802C317.249 72.7802 308.779 63.8502 308.779 48.7602C308.779 33.6702 317.249 24.7402 331.609 24.7402C345.969 24.7402 354.249 33.5802 354.249 48.7602V50.1402H354.259V50.1302ZM320.659 45.9902H342.379C341.639 38.2602 337.679 33.8402 331.609 33.8402C325.539 33.8402 321.489 38.2602 320.659 45.9902Z" fill="#00B7CB"/>
<path d="M414.479 69.3815L376.319 43.4415C375.629 43.0415 375.089 43.0315 374.699 43.3915C374.309 43.7615 374.109 44.4015 374.109 45.3315V73.1815H362.859V27.0215H370.899L414.479 54.6515V69.3715V69.3815Z" fill="#00B7CB"/>
<path d="M418.629 25.5011V33.6611C418.629 34.6811 417.869 35.5011 416.929 35.5011H408.599C407.659 35.5011 406.899 34.6811 406.899 33.6611V25.5011C406.899 24.4811 407.659 23.6611 408.599 23.6611H416.929C417.869 23.6611 418.629 24.4811 418.629 25.5011Z" fill="#00B7CB"/>
<path d="M146 48.6311H158.68C159.52 57.9511 165.39 63.4511 174.71 63.4511C184.03 63.4511 189.62 59.5411 189.62 53.0111C189.62 45.0011 181.42 43.7811 172.38 42.3911C161.01 40.8111 147.87 38.8511 147.87 23.5611C147.87 10.1411 157.75 2.87109 174.43 2.87109C189.62 2.87109 199.5 11.8211 200.81 26.9211H188.04C187.48 18.2511 182.17 13.1311 173.78 13.1311C165.39 13.1311 160.92 16.6711 160.92 22.6411C160.92 29.4411 168.56 30.6511 177.14 31.9611C188.79 33.6411 202.68 35.7811 202.68 51.7211C202.68 65.5111 192.24 73.7211 174.44 73.7211C157.85 73.7211 147.32 64.4911 146.01 48.6511V48.6311H146Z" fill="#00B7CB"/>
<path d="M505.949 4.32031H518.099V15.8303H505.949V4.32031ZM505.949 24.6604H518.099V70.8704H505.949V24.6604Z" fill="#00B7CB"/>
<path d="M544.309 0H532.159V70.8699H544.309V0Z" fill="#00B7CB"/>
<path d="M568.509 0H556.359V70.8699H568.509V0Z" fill="#00B7CB"/>
<path d="M580.569 4.32031H592.719V15.8303H580.569V4.32031ZM580.569 24.6604H592.719V70.8704H580.569V24.6604Z" fill="#00B7CB"/>
<path d="M598.289 47.77C598.289 32.68 607.309 23.75 622.409 23.75C637.509 23.75 646.429 32.68 646.429 47.77C646.429 62.86 637.499 71.79 622.409 71.79C607.319 71.79 598.289 62.86 598.289 47.77ZM634.089 47.77C634.089 38.75 629.759 33.32 622.399 33.32C615.039 33.32 610.709 38.75 610.709 47.77C610.709 56.79 615.039 62.13 622.399 62.13C629.759 62.13 634.089 56.79 634.089 47.77Z" fill="#00B7CB"/>
<path d="M698.629 42.7005V70.8605H685.549V43.2505C685.549 36.9905 681.979 33.3105 675.839 33.3105C668.899 33.3105 664.839 38.0105 664.839 45.8305V70.8605H651.759V24.6505H664.839V40.8505H665.039C665.039 30.0805 671.089 23.7305 681.189 23.7305C692.189 23.7305 698.629 30.7305 698.629 42.6905" fill="#00B7CB"/>
<path d="M494.609 51.3804C494.609 64.2404 485.289 71.7904 469.449 71.7904H440.279V2.82031H470.199C482.409 2.82031 489.589 8.41031 489.589 17.9204C489.589 26.6804 482.039 31.9904 469.369 31.9904V32.1804H470.769C485.779 32.1804 494.629 39.2604 494.629 51.3804H494.609ZM465.999 12.7903H453.139V31.9904H465.999C472.429 31.9904 476.249 28.3604 476.249 22.3904C476.249 16.4203 472.429 12.7903 465.999 12.7903ZM481.279 51.3804C481.279 44.8604 477.089 40.9404 470.099 40.9404H453.139V61.8204H470.099C477.089 61.8204 481.279 57.9104 481.279 51.3804Z" fill="#00B7CB"/>
<path d="M174.48 126C173.072 126 172.048 125.637 171.408 124.912C170.768 124.187 170.405 123.205 170.32 121.968V120.816H170C169.275 122.651 168.08 124.101 166.416 125.168C164.752 126.235 162.64 126.768 160.08 126.768C156.624 126.768 153.957 125.936 152.08 124.272C150.203 122.565 149.264 120.176 149.264 117.104C149.264 114.203 150.288 111.899 152.336 110.192C154.427 108.485 157.84 107.632 162.576 107.632H170.128V103.792C170.128 98.3733 167.333 95.664 161.744 95.664C159.568 95.664 157.755 96.1333 156.304 97.072C154.853 97.968 153.68 99.2693 152.784 100.976L150.48 99.056C151.376 97.136 152.741 95.5573 154.576 94.32C156.453 93.0827 158.885 92.464 161.872 92.464C165.712 92.464 168.656 93.424 170.704 95.344C172.752 97.264 173.776 99.952 173.776 103.408V122.8H178.192V126H174.48ZM160.592 123.632C161.915 123.632 163.152 123.461 164.304 123.12C165.456 122.779 166.459 122.309 167.312 121.712C168.208 121.072 168.891 120.325 169.36 119.472C169.872 118.576 170.128 117.573 170.128 116.464V110.384H162.448C159.163 110.384 156.773 110.917 155.28 111.984C153.829 113.008 153.104 114.437 153.104 116.272V117.808C153.104 119.728 153.787 121.179 155.152 122.16C156.517 123.141 158.331 123.632 160.592 123.632ZM185.702 126V93.232H189.35V98.416H189.542C190.267 96.7093 191.398 95.3013 192.934 94.192C194.47 93.04 196.561 92.464 199.206 92.464C202.705 92.464 205.414 93.552 207.334 95.728C209.297 97.8613 210.278 100.933 210.278 104.944V126H206.63V105.584C206.63 102.256 205.905 99.7813 204.454 98.16C203.046 96.5387 200.977 95.728 198.246 95.728C197.094 95.728 195.985 95.8773 194.918 96.176C193.851 96.4747 192.891 96.9227 192.038 97.52C191.227 98.1173 190.566 98.8853 190.054 99.824C189.585 100.72 189.35 101.765 189.35 102.96V126H185.702ZM244.293 126C242.885 126 241.861 125.637 241.221 124.912C240.581 124.187 240.218 123.205 240.133 121.968V120.816H239.813C239.087 122.651 237.893 124.101 236.229 125.168C234.565 126.235 232.453 126.768 229.893 126.768C226.437 126.768 223.77 125.936 221.893 124.272C220.015 122.565 219.077 120.176 219.077 117.104C219.077 114.203 220.101 111.899 222.149 110.192C224.239 108.485 227.653 107.632 232.389 107.632H239.941V103.792C239.941 98.3733 237.146 95.664 231.557 95.664C229.381 95.664 227.567 96.1333 226.117 97.072C224.666 97.968 223.493 99.2693 222.597 100.976L220.293 99.056C221.189 97.136 222.554 95.5573 224.389 94.32C226.266 93.0827 228.698 92.464 231.685 92.464C235.525 92.464 238.469 93.424 240.517 95.344C242.565 97.264 243.589 99.952 243.589 103.408V122.8H248.005V126H244.293ZM230.405 123.632C231.727 123.632 232.965 123.461 234.117 123.12C235.269 122.779 236.271 122.309 237.125 121.712C238.021 121.072 238.703 120.325 239.173 119.472C239.685 118.576 239.941 117.573 239.941 116.464V110.384H232.26C228.975 110.384 226.586 110.917 225.093 111.984C223.642 113.008 222.917 114.437 222.917 116.272V117.808C222.917 119.728 223.599 121.179 224.965 122.16C226.33 123.141 228.143 123.632 230.405 123.632ZM259.547 126C258.224 126 257.221 125.637 256.539 124.912C255.856 124.187 255.515 123.227 255.515 122.032V78.64H259.163V122.8H264.219V126H259.547ZM291.474 93.232H295.186L280.018 135.216C279.506 136.581 278.887 137.52 278.162 138.032C277.436 138.544 276.242 138.8 274.578 138.8H270.866V135.6H276.37L279.506 126.96L267.346 93.232H271.186L281.234 122.096H281.49L291.474 93.232ZM308.272 126C306.949 126 305.946 125.637 305.264 124.912C304.581 124.187 304.24 123.205 304.24 121.968V96.432H298.544V93.232H302.256C303.152 93.232 303.749 93.0613 304.048 92.72C304.389 92.336 304.56 91.6747 304.56 90.736V84.08H307.888V93.232H315.312V96.432H307.888V122.8H314.8V126H308.272ZM325.869 84.336C325.016 84.336 324.376 84.1227 323.949 83.696C323.565 83.2693 323.373 82.7147 323.373 82.032V81.392C323.373 80.7093 323.565 80.1547 323.949 79.728C324.376 79.3013 325.016 79.088 325.869 79.088C326.722 79.088 327.341 79.3013 327.725 79.728C328.152 80.1547 328.365 80.7093 328.365 81.392V82.032C328.365 82.7147 328.152 83.2693 327.725 83.696C327.341 84.1227 326.722 84.336 325.869 84.336ZM324.077 93.232H327.725V126H324.077V93.232ZM351.16 126.768C346.637 126.768 343.138 125.275 340.664 122.288C338.232 119.301 337.016 115.077 337.016 109.616C337.016 104.155 338.232 99.9307 340.664 96.944C343.138 93.9573 346.637 92.464 351.16 92.464C354.189 92.464 356.642 93.1253 358.52 94.448C360.397 95.7707 361.826 97.52 362.808 99.696L359.736 101.232C358.968 99.44 357.88 98.0747 356.472 97.136C355.106 96.1973 353.336 95.728 351.16 95.728C347.832 95.728 345.293 96.7947 343.544 98.928C341.794 101.061 340.92 103.856 340.92 107.312V111.92C340.92 115.376 341.794 118.171 343.544 120.304C345.293 122.437 347.832 123.504 351.16 123.504C353.421 123.504 355.32 123.013 356.856 122.032C358.392 121.051 359.629 119.643 360.568 117.808L363.256 119.6C362.189 121.776 360.653 123.525 358.648 124.848C356.685 126.128 354.189 126.768 351.16 126.768ZM380.67 126.768C377.811 126.768 375.358 126.235 373.31 125.168C371.304 124.101 369.555 122.544 368.062 120.496L370.75 118.384C372.115 120.176 373.608 121.499 375.23 122.352C376.851 123.205 378.75 123.632 380.926 123.632C383.443 123.632 385.384 123.099 386.75 122.032C388.115 120.965 388.798 119.429 388.798 117.424C388.798 115.675 388.264 114.309 387.198 113.328C386.174 112.304 384.467 111.621 382.078 111.28L379.39 110.832C377.896 110.619 376.531 110.299 375.294 109.872C374.056 109.445 372.99 108.869 372.094 108.144C371.24 107.419 370.558 106.544 370.046 105.52C369.576 104.453 369.342 103.173 369.342 101.68C369.342 100.144 369.619 98.8 370.174 97.648C370.771 96.496 371.56 95.536 372.542 94.768C373.523 94 374.696 93.424 376.062 93.04C377.427 92.656 378.899 92.464 380.478 92.464C383.208 92.464 385.448 92.9333 387.198 93.872C388.947 94.8107 390.44 96.0267 391.678 97.52L389.246 99.76C388.392 98.736 387.24 97.7973 385.79 96.944C384.382 96.048 382.547 95.6 380.286 95.6C377.939 95.6 376.104 96.112 374.782 97.136C373.502 98.16 372.862 99.6107 372.862 101.488C372.862 103.408 373.438 104.795 374.59 105.648C375.784 106.501 377.555 107.12 379.902 107.504L382.526 107.888C385.854 108.4 388.307 109.403 389.886 110.896C391.507 112.347 392.318 114.395 392.318 117.04C392.318 120.112 391.272 122.501 389.182 124.208C387.134 125.915 384.296 126.768 380.67 126.768Z" fill="#00B7CB"/>
</svg>
